<svg id="bulldozer" enable-background="new 0 0 300 300" height="512" viewBox="0 0 300 300" width="512" xmlns="http://www.w3.org/2000/svg"><g><circle cx="122" cy="118" fill="#eaeaea" r="86"/><path d="m130.242 62.973c-1.023 0-2.043-.391-2.824-1.168-1.562-1.559-1.57-4.09-.008-5.656l11.773-11.812c1.562-1.566 4.094-1.562 5.656-.008 1.562 1.559 1.57 4.09.008 5.656l-11.773 11.812c-.781.785-1.804 1.176-2.832 1.176z" fill="#4c241d"/><g><path d="m201.407 167.438-15.141-5.172 22.164-64.852c1.105-3.238 4.148-5.414 7.57-5.414h24v16h-18.281z" fill="#ffce56"/><path d="m201.407 171.438c-.43 0-.863-.07-1.293-.215l-15.141-5.172c-1.004-.344-1.832-1.07-2.297-2.023-.469-.953-.539-2.051-.195-3.055l22.164-64.852c1.656-4.855 6.222-8.121 11.355-8.121h24c2.211 0 4 1.789 4 4v16c0 2.211-1.789 4-4 4h-15.422l-19.387 56.73c-.566 1.665-2.12 2.708-3.784 2.708zm-10.063-11.665 7.57 2.586 19.02-55.652c.555-1.621 2.074-2.707 3.785-2.707h14.281v-8h-20c-1.711 0-3.23 1.086-3.785 2.707z" fill="#4c241d"/></g><path d="m142.035 62.953c-1.023 0-2.043-.391-2.824-1.168l-11.813-11.773c-1.562-1.559-1.57-4.09-.008-5.656 1.563-1.562 4.094-1.562 5.656-.008l11.812 11.773c1.562 1.559 1.57 4.09.008 5.656-.78.785-1.803 1.176-2.831 1.176z" fill="#4c241d"/><circle cx="188" cy="60" fill="#4c241d" r="4"/><g><path d="m180 236h72v-64l-108-16 24 48v32z" fill="#ffce56"/><path d="m252 240h-84c-2.211 0-4-1.789-4-4v-31.055l-23.578-47.156c-.668-1.336-.535-2.93.34-4.137.871-1.207 2.352-1.816 3.824-1.609l108 16c1.961.289 3.414 1.973 3.414 3.957v64c0 2.211-1.789 4-4 4zm-80-8h76v-56.551l-96.988-14.367 20.566 41.129c.277.555.422 1.168.422 1.789z" fill="#4c241d"/></g><g><path d="m104 80h52v132h-52z" fill="#9dc1e4"/><path d="m156 216h-52c-2.211 0-4-1.789-4-4v-132c0-2.211 1.789-4 4-4h52c2.211 0 4 1.789 4 4v132c0 2.211-1.789 4-4 4zm-48-8h44v-124h-44z" fill="#4c241d"/></g><g><path d="m64 80h52v132h-52z" fill="#ffce56"/><path d="m116 216h-52c-2.211 0-4-1.789-4-4v-132c0-2.211 1.789-4 4-4h52c2.211 0 4 1.789 4 4v132c0 2.211-1.789 4-4 4zm-48-8h44v-124h-44z" fill="#4c241d"/></g><g><path d="m168 204c0-44.183-35.817-80-80-80h-24v112h104z" fill="#ffce56"/><path d="m168 240h-104c-2.211 0-4-1.789-4-4v-112c0-2.211 1.789-4 4-4h24c46.316 0 84 37.684 84 84v32c0 2.211-1.789 4-4 4zm-100-8h96v-28c0-41.906-34.094-76-76-76h-20z" fill="#4c241d"/></g><g><circle cx="242" cy="234" fill="#6b4f5b" r="26"/><path d="m242 264c-16.543 0-30-13.457-30-30s13.457-30 30-30 30 13.457 30 30-13.457 30-30 30zm0-52c-12.129 0-22 9.871-22 22s9.871 22 22 22 22-9.871 22-22-9.871-22-22-22z" fill="#4c241d"/></g><g><circle cx="242" cy="234" fill="#b5a19c" r="10"/><path d="m242 248c-7.719 0-14-6.281-14-14s6.281-14 14-14 14 6.281 14 14-6.281 14-14 14zm0-20c-3.309 0-6 2.691-6 6s2.691 6 6 6 6-2.691 6-6-2.691-6-6-6z" fill="#4c241d"/></g><g><circle cx="88" cy="204" fill="#6b4f5b" r="60"/><path d="m88 268c-35.289 0-64-28.711-64-64s28.711-64 64-64 64 28.711 64 64-28.711 64-64 64zm0-120c-30.879 0-56 25.121-56 56s25.121 56 56 56 56-25.121 56-56-25.121-56-56-56z" fill="#4c241d"/></g><g><circle cx="88" cy="204" fill="#b5a19c" r="20"/><path d="m88 228c-13.234 0-24-10.766-24-24s10.766-24 24-24 24 10.766 24 24-10.765 24-24 24zm0-40c-8.824 0-16 7.176-16 16s7.176 16 16 16 16-7.176 16-16-7.175-16-16-16z" fill="#4c241d"/></g><g fill="#4c241d"><path d="m76 128h-24c-2.211 0-4-1.789-4-4s1.789-4 4-4h24c2.211 0 4 1.789 4 4s-1.789 4-4 4z"/><path d="m208 192h-24c-2.211 0-4-1.789-4-4s1.789-4 4-4h24c2.211 0 4 1.789 4 4s-1.789 4-4 4z"/><path d="m208 204h-24c-2.211 0-4-1.789-4-4s1.789-4 4-4h24c2.211 0 4 1.789 4 4s-1.789 4-4 4z"/><path d="m208 216h-24c-2.211 0-4-1.789-4-4s1.789-4 4-4h24c2.211 0 4 1.789 4 4s-1.789 4-4 4z"/><path d="m72 84h-20c-2.211 0-4-1.789-4-4s1.789-4 4-4h20c2.211 0 4 1.789 4 4s-1.789 4-4 4z"/></g><g><path d="m272 132h-32v-64h16z" fill="#6b4f5b"/><path d="m272 136h-32c-2.211 0-4-1.789-4-4v-64c0-2.211 1.789-4 4-4h16c1.836 0 3.434 1.25 3.879 3.031l16 64c.301 1.195.031 2.461-.727 3.43-.757.973-1.921 1.539-3.152 1.539zm-28-8h22.875l-14-56h-8.875z" fill="#4c241d"/></g></g></svg>