<svg version="1.0" xmlns="http://www.w3.org/2000/svg" width="389.333" height="389.333" viewBox="0 0 292 292"><path d="M124.5 1.5c-31.3 5-58.9 18.8-80.4 40.4C29.5 56.5 20.6 69.7 11.7 90c-3.6 8.1-7.9 24.1-9.4 35-1.4 10-.8 35.8 1.1 45.5 7.8 39.9 29.8 72.9 63.6 95.2 13.9 9.2 34 17.5 47.7 19.9 1.5.3 3.5.7 4.3.9 7.2 2 36.4 2.8 46.5 1.2 32.9-5.2 60.3-19.1 83-42.2 21.3-21.6 36.4-52.1 40.2-81 .4-3.3.8-13.2.7-22 0-12.8-.5-18.1-2.3-26.4-6.5-29.8-18.9-52.7-39.6-73.6-4.4-4.5-9.8-9.4-12-11-2.2-1.7-4.2-3.2-4.5-3.5-1.3-1.4-17.1-10.9-22-13.2-13.7-6.5-28.2-11.2-38-12.5-1.9-.2-4.2-.7-5-1-3.2-1.1-33.8-1-41.5.2z"/></svg>