<svg width="165" height="165" viewBox="0 0 165 165" fill="none" xmlns="http://www.w3.org/2000/svg">
<path d="M161.802 33.1599C161.791 33.1599 161.78 33.1599 161.77 33.1599H150.927V29.4499C150.986 27.9815 150.036 26.6618 148.625 26.2516C141.098 24.2791 133.346 23.29 125.565 23.3092C112.772 23.3092 95.3411 26.1876 82.452 39.3006C69.6589 26.0597 52.1002 23.3092 39.339 23.3092C31.5576 23.29 23.8065 24.2791 16.2793 26.2516C14.8681 26.6618 13.9182 27.9815 13.9765 29.4499V33.1279H3.19829C1.43204 33.1279 0 34.56 0 36.3262V138.48C0 140.246 1.43204 141.678 3.19829 141.678C3.7476 141.676 4.28731 141.533 4.76546 141.262C5.08529 141.102 37.0682 123.608 81.7164 134.866H82.1962H82.484C82.7391 134.896 82.9965 134.896 83.2516 134.866C128.028 123.512 160.011 140.974 160.203 141.262C161.192 141.834 162.411 141.834 163.401 141.262C164.384 140.695 164.993 139.648 165 138.512V36.3582C165 34.592 163.568 33.1599 161.802 33.1599ZM6.39659 133.394V39.5565H14.0405V119.77C14.0205 121.536 15.4362 122.984 17.2024 123.004C17.3751 123.006 17.5478 122.994 17.7185 122.968C24.335 121.958 31.0151 121.423 37.7079 121.369C46.9789 121.208 56.2112 122.603 65.0213 125.495C45.1259 123.089 24.9455 125.808 6.39659 133.394ZM37.7079 115.004C31.8906 115.017 26.0801 115.391 20.3092 116.124V31.9766C26.5362 30.5893 32.8953 29.8813 39.2751 29.8657C51.2367 29.8657 67.7399 32.6162 79.1898 45.5373L79.2857 125.207C72.6333 120.857 59.6482 115.004 37.7079 115.004ZM85.6823 45.5373C97.1322 32.7441 113.635 29.8657 125.597 29.8657C131.976 29.8845 138.335 30.5921 144.563 31.9766V116.124C138.824 115.384 133.046 115 127.26 114.972C105.448 114.972 92.4307 120.825 85.6823 125.175V45.5373ZM158.571 133.394C139.983 125.787 119.756 123.068 99.8188 125.495C108.67 122.592 117.947 121.197 127.26 121.369C133.995 121.406 140.718 121.93 147.377 122.936C149.124 123.201 150.754 122 151.019 120.254C151.045 120.083 151.057 119.91 151.055 119.738V39.5565H158.699L158.571 133.394Z" fill="#171717"/>
</svg>
