<svg width="165" height="165" viewBox="0 0 165 165" fill="none" xmlns="http://www.w3.org/2000/svg">
<path d="M149.531 14.0186H136.318C135.72 14.0186 135.146 14.2562 134.723 14.6793C134.3 15.1023 134.062 15.6761 134.062 16.2744V42.0557H80.8577C80.8835 41.5826 80.9041 41.1095 80.9041 40.6377C80.8552 33.6111 78.0296 26.889 73.0437 21.9377C68.0578 16.9864 61.3162 14.2076 54.2895 14.2076C47.2628 14.2076 40.5212 16.9864 35.5353 21.9377C30.5494 26.889 27.7238 33.6111 27.6749 40.6377C27.6749 41.1146 27.6955 41.5877 27.7213 42.0557H2.25586C1.65757 42.0557 1.08378 42.2933 0.660726 42.7164C0.23767 43.1394 0 43.7132 0 44.3115L0 148.726C0 149.324 0.23767 149.898 0.660726 150.321C1.08378 150.744 1.65757 150.981 2.25586 150.981H149.531C153.632 150.977 157.564 149.346 160.464 146.446C163.364 143.546 164.996 139.614 165 135.513V29.4873C164.996 25.3861 163.364 21.4541 160.464 18.5541C157.564 15.6542 153.632 14.023 149.531 14.0186ZM17.4023 70.4898L18.7236 71.8124L21.0787 78.4227C21.2455 78.8759 21.5511 79.2649 21.9521 79.5342C22.353 79.8034 22.8288 79.9391 23.3114 79.9219L29.3868 79.6293L37.9113 84.9492L36.9858 90.331C36.8929 90.8646 36.9954 91.4138 37.2745 91.8779L41.464 98.8608C41.6462 99.1648 41.8976 99.4216 42.1978 99.6102C42.4979 99.7988 42.8383 99.9139 43.1913 99.9462L42.1291 108.041C42.1021 108.242 42.1021 108.445 42.1291 108.646L44.278 124.115C44.3532 124.654 44.6208 125.148 45.0313 125.505C45.4418 125.863 45.9676 126.06 46.512 126.06H51.3202C51.8549 126.06 52.3722 125.87 52.7798 125.524C53.1873 125.178 53.4586 124.698 53.5451 124.17L55.5212 112.182L60.9211 105.316L73.746 103.816C74.2917 103.752 74.7953 103.492 75.1623 103.083C75.5294 102.674 75.7344 102.146 75.7389 101.596L75.8446 89.4532C75.8486 88.9427 75.68 88.4458 75.3663 88.043L68.8153 79.6641C68.5686 79.349 68.2426 79.1052 67.8707 78.9575C67.4988 78.8098 67.0943 78.7636 66.6987 78.8236L61.4715 79.6164C63.3578 75.8835 65.0298 72.0462 66.4795 68.1231C67.0428 66.5762 67.5623 65.0048 68.0161 63.4348C69.8577 62.32 71.5582 60.9874 73.0808 59.4657H118.189L122.867 64.1437V68.5459L114.573 71.6641H106.194L103.042 68.5137C102.732 68.2027 102.338 67.9892 101.907 67.8997C101.477 67.8101 101.03 67.8483 100.622 68.0096L94.3323 70.4885C94.0423 70.6004 93.7789 70.7716 93.5589 70.9912L85.3643 79.1858C85.1546 79.395 84.9882 79.6436 84.8747 79.9172C84.7612 80.1908 84.7029 80.4842 84.703 80.7804V88.596C84.7029 88.8922 84.7612 89.1855 84.8747 89.4592C84.9882 89.7328 85.1546 89.9814 85.3643 90.1906L90.8905 95.7168C91.3135 96.1396 91.887 96.3775 92.4851 96.378H98.6133L105.582 103.347V112.989C105.582 113.587 105.819 114.161 106.242 114.585L112.389 120.73C112.599 120.939 112.847 121.106 113.121 121.219C113.395 121.333 113.688 121.391 113.984 121.391C114.28 121.391 114.574 121.333 114.847 121.219C115.121 121.106 115.369 120.939 115.579 120.73L123.442 112.866C123.865 112.443 124.102 111.869 124.102 111.271V107.626L127.067 104.662C127.49 104.239 127.728 103.665 127.728 103.067V96.7867L132.795 91.7181C133.005 91.5088 133.171 91.2602 133.285 90.9866C133.398 90.713 133.457 90.4197 133.457 90.1235C133.457 89.8273 133.398 89.534 133.285 89.2604C133.171 88.9868 133.005 88.7382 132.795 88.5289L127.05 82.79L130.788 81.6531L130.956 81.8207C131.857 82.712 132.909 83.4369 134.062 83.9618V122.3C134.062 122.898 134.3 123.472 134.723 123.895C135.146 124.318 135.72 124.556 136.318 124.556H147.598V133.579H17.4023V70.4898ZM44.4662 73.9922L39.9416 71.0402L43.0586 70.6355C43.5136 71.775 43.9867 72.8926 44.4662 73.9922ZM35.4969 59.458C37.0199 60.9779 38.7204 62.3088 40.5616 63.4219C40.8195 64.332 41.1147 65.2407 41.4176 66.147C41.433 66.1934 41.4446 66.2372 41.4614 66.2836L36.0216 66.99C35.678 67.0334 35.349 67.1553 35.0601 67.3463C34.7711 67.5373 34.5301 67.7923 34.3556 68.0914C34.1811 68.3906 34.0778 68.7259 34.0537 69.0714C34.0297 69.4169 34.0855 69.7633 34.2169 70.0838L35.4002 72.9841C35.5748 73.4064 35.8733 73.766 36.2562 74.0154L43.667 78.8494C43.918 79.012 44.1987 79.1235 44.4929 79.1774C44.7871 79.2314 45.089 79.2268 45.3814 79.1639L46.7324 78.8674C49.0862 83.6447 51.2312 87.2695 52.0343 88.5921C52.2246 89.0416 52.5354 89.4298 52.9323 89.7139C53.3292 89.998 53.7969 90.1669 54.2837 90.2021C54.6878 90.1952 55.0832 90.0833 55.431 89.8774C55.7788 89.6716 56.0671 89.3788 56.2676 89.0278C56.5254 88.6231 57.5077 87.0066 58.8586 84.5625L66.0683 83.4681L71.3225 90.188L71.2413 99.553L59.4657 100.934C59.1707 100.968 58.8853 101.061 58.6261 101.206C58.3669 101.351 58.1388 101.546 57.955 101.779L51.6179 109.836C51.3822 110.136 51.2265 110.491 51.1655 110.867L49.4059 121.546H48.4778L46.6421 108.326L47.9982 97.9945C48.0399 97.6762 48.0131 97.3528 47.9198 97.0456C47.8264 96.7385 47.6687 96.4548 47.457 96.2135C47.2453 95.9722 46.9846 95.7788 46.6923 95.6462C46.4 95.5137 46.0827 95.445 45.7617 95.4448H44.675L41.5736 90.2743L42.6138 84.2261C42.6897 83.7842 42.6321 83.3298 42.4484 82.9209C42.2647 82.5119 41.9632 82.167 41.5826 81.9302L31.176 75.4256C30.7853 75.1834 30.3306 75.0648 29.8714 75.0853L24.7629 75.3315L22.8035 69.8195C22.6913 69.5043 22.5104 69.2181 22.2737 68.9816L17.4023 64.1089V59.458H35.4969ZM134.062 78.5516L133.017 77.5049C132.728 77.2155 132.366 77.0101 131.969 76.9109C131.572 76.8117 131.156 76.8223 130.765 76.9416L122.139 79.5687C121.766 79.6823 121.43 79.8904 121.161 80.1727C120.893 80.455 120.703 80.802 120.608 81.1797C120.514 81.5575 120.519 81.9533 120.623 82.3285C120.727 82.7038 120.926 83.0457 121.202 83.3211L128.004 90.1235L123.87 94.2575C123.447 94.6807 123.21 95.2542 123.21 95.8521V102.136L120.245 105.101C119.822 105.524 119.584 106.098 119.584 106.697V110.336L113.979 115.941L110.089 112.052V102.404C110.088 101.806 109.85 101.233 109.427 100.81L101.137 92.5186C100.928 92.3093 100.679 92.1432 100.406 92.03C100.132 91.9167 99.8388 91.8585 99.5427 91.8586H93.4287L89.2238 87.6562V81.7072L96.4219 74.5078L100.899 72.7431L103.665 75.5081C104.088 75.9312 104.662 76.1691 105.26 76.1694H114.984C115.256 76.1694 115.525 76.1205 115.778 76.025L125.918 72.2133C126.348 72.0516 126.718 71.7629 126.979 71.3857C127.24 71.0085 127.38 70.5606 127.38 70.1018V63.2014C127.38 62.6033 127.142 62.0297 126.719 61.6069L124.571 59.458H134.062V78.5516ZM80.2287 46.5674H134.062V54.9463H76.7095C78.3505 52.3737 79.5406 49.5401 80.2287 46.5674ZM54.2902 18.5303C60.1501 18.5368 65.7681 20.8675 69.9117 25.011C74.0552 29.1546 76.3859 34.7726 76.3924 40.6325C76.3649 44.5737 75.2966 48.4377 73.2955 51.8332C71.2944 55.2287 68.4317 58.0352 64.9971 59.9685C64.7342 60.1149 64.5031 60.3124 64.3174 60.5492C64.1317 60.786 63.9951 61.0575 63.9156 61.3478C61.9372 67.976 59.2693 74.3785 55.9556 80.4504C55.3472 81.5964 54.7826 82.6212 54.2889 83.4965C51.3188 78.2668 48.7417 72.8236 46.579 67.2117C46.2129 66.2307 45.8726 65.2691 45.5658 64.3358C45.5439 64.2688 45.5232 64.2069 45.5026 64.136C45.1907 63.177 44.9071 62.2424 44.6621 61.3478C44.5831 61.0575 44.4468 60.7859 44.2613 60.549C44.0758 60.3122 43.8448 60.1148 43.5819 59.9685C40.1475 58.035 37.2849 55.2284 35.2839 51.833C33.2828 48.4375 32.2144 44.5737 32.1866 40.6325C32.1931 34.7724 34.524 29.1542 38.6678 25.0106C42.8117 20.867 48.43 18.5364 54.2902 18.5303ZM149.531 146.47H4.51172V46.5674H28.3504C28.3658 46.6318 28.389 46.6963 28.4045 46.7556C28.7965 48.4103 29.3469 50.0235 30.048 51.5728L30.0854 51.6579C30.6031 52.7941 31.1992 53.8929 31.8695 54.9463H15.1465C14.5482 54.9463 13.9744 55.184 13.5514 55.607C13.1283 56.0301 12.8906 56.6039 12.8906 57.2021V135.835C12.8906 136.433 13.1283 137.007 13.5514 137.43C13.9744 137.853 14.5482 138.091 15.1465 138.091H149.854C150.452 138.091 151.026 137.853 151.449 137.43C151.872 137.007 152.109 136.433 152.109 135.835V124.878C154.714 125.508 156.998 127.071 158.528 129.272C160.057 131.473 160.727 134.159 160.409 136.82C160.091 139.481 158.808 141.934 156.804 143.712C154.799 145.491 152.211 146.473 149.531 146.472V146.47ZM159.962 124.124C157.114 121.513 153.395 120.058 149.531 120.044H138.574V18.5303H149.531C152.436 18.5337 155.221 19.6892 157.275 21.7433C159.329 23.7974 160.485 26.5824 160.488 29.4873V124.603C160.323 124.434 160.136 124.282 159.962 124.124Z" fill="#171717"/>
<path d="M54.2889 53.1945C56.7731 53.1947 59.2017 52.4583 61.2674 51.0783C63.3331 49.6984 64.9432 47.7368 65.8942 45.4418C66.8451 43.1467 67.0941 40.6212 66.6097 38.1846C66.1253 35.7481 64.9292 33.5099 63.1728 31.753C61.4163 29.9962 59.1783 28.7997 56.7419 28.3148C54.3054 27.8299 51.7798 28.0784 49.4846 29.0288C47.1893 29.9793 45.2275 31.589 43.8471 33.6544C42.4667 35.7199 41.7298 38.1483 41.7295 40.6325C41.7329 43.9627 43.0572 47.1555 45.4117 49.5105C47.7662 51.8655 50.9587 53.1904 54.2889 53.1945ZM54.2889 32.5849C55.8809 32.5847 57.4372 33.0565 58.7611 33.9409C60.0849 34.8252 61.1168 36.0823 61.7261 37.5531C62.3355 39.0238 62.495 40.6423 62.1845 42.2038C61.8739 43.7652 61.1073 45.1995 59.9816 46.3253C58.8558 47.451 57.4215 48.2176 55.8601 48.5281C54.2986 48.8387 52.6802 48.6792 51.2094 48.0698C49.7386 47.4604 48.4815 46.4286 47.5972 45.1048C46.7129 43.7809 46.241 42.2246 46.2412 40.6325C46.244 38.499 47.0927 36.4537 48.6013 34.945C50.11 33.4364 52.1553 32.5877 54.2889 32.5849Z" fill="#171717"/>
</svg>
