<svg width="165" height="165" viewBox="0 0 165 165" fill="none" xmlns="http://www.w3.org/2000/svg">
<path d="M111.389 69.632L107.212 73.8043C93.5786 60.1749 71.4073 60.1749 57.7736 73.8043L53.6014 69.632C69.5357 53.702 95.4643 53.6973 111.389 69.632ZM60.8143 76.845L64.9864 81.022C74.6366 71.3669 90.3446 71.3669 99.9994 81.022L104.172 76.845C92.2209 64.894 72.7744 64.894 60.8143 76.845ZM68.2581 84.2891L72.4303 88.4614C77.979 82.9125 87.0069 82.9125 92.5556 88.4614L96.7324 84.2891C88.8784 76.4396 76.1169 76.4396 68.2581 84.2891ZM130.425 11.1449V153.855C130.425 159.989 125.419 165 119.281 165H45.7144C39.5859 165.005 34.5699 159.993 34.5699 153.86V11.1449C34.5699 5.01614 39.5859 0 45.7144 0H119.276C125.405 0 130.425 5.01143 130.425 11.1449ZM69.3801 9.3817C69.3801 10.1266 69.9836 10.73 70.7284 10.73H94.2621C95.007 10.73 95.6104 10.1266 95.6104 9.3817C95.6104 8.63682 95.007 8.02866 94.2621 8.02866H70.7284C69.9883 8.03337 69.3801 8.63682 69.3801 9.3817ZM88.0676 153.86C88.0676 150.781 85.5737 148.287 82.4953 148.287C79.4169 148.287 76.923 150.777 76.923 153.86C76.923 156.943 79.4169 159.437 82.4953 159.437C85.5737 159.437 88.0676 156.938 88.0676 153.86ZM122.67 17.6744H42.3296V144.379H122.67V17.6744Z" fill="#171717"/>
</svg>
