<svg height="512" viewBox="0 0 48 58" width="512" xmlns="http://www.w3.org/2000/svg"><g id="Page-1" fill="none" fill-rule="evenodd"><g id="055---Horror-Novel" fill-rule="nonzero" transform="translate(-1)"><path id="Shape" d="m47 0h-41c-2.76142375 0-5 2.23857625-5 5v44c-.00311634.1635861.00356227.327212.02.49.32491085 2.607865 2.56231031 4.5521177 5.19 4.51h40.79c1.1032019-.0032948 1.9967052-.8967981 2-2v-50c-.0032948-1.10320187-.8967981-1.9967052-2-2z" fill="#f9eab0"/><path id="Shape" d="m49 2v39c0 1.1-.9 3-2 3h-41c-2.76142375 0-5 2.2385763-5 5v-44c0-2.76142375 2.23857625-5 5-5h41c1.1032019.0032948 1.9967052.89679813 2 2z" fill="#35495e"/><g fill="#2c3e50"><path id="Shape" d="m8 0v2c0 .55228475-.44771525 1-1 1s-1-.44771525-1-1v-2z"/><path id="Shape" d="m7 9c-.55228475 0-1-.44771525-1-1v-2c0-.55228475.44771525-1 1-1s1 .44771525 1 1v2c0 .55228475-.44771525 1-1 1z"/><path id="Shape" d="m49 41v11c-.0032948 1.1032019-.8967981 1.9967052-2 2h-1c-1.66 0-3-2.24-3-5s1.34-5 3-5h1c1.1 0 2-1.9 2-3z"/><path id="Shape" d="m7 15c-.55228475 0-1-.4477153-1-1v-2c0-.5522847.44771525-1 1-1s1 .4477153 1 1v2c0 .5522847-.44771525 1-1 1z"/><path id="Shape" d="m7 21c-.55228475 0-1-.4477153-1-1v-2c0-.5522847.44771525-1 1-1s1 .4477153 1 1v2c0 .5522847-.44771525 1-1 1z"/><path id="Shape" d="m7 27c-.55228475 0-1-.4477153-1-1v-2c0-.5522847.44771525-1 1-1s1 .4477153 1 1v2c0 .5522847-.44771525 1-1 1z"/><path id="Shape" d="m7 33c-.55228475 0-1-.4477153-1-1v-2c0-.5522847.44771525-1 1-1s1 .4477153 1 1v2c0 .5522847-.44771525 1-1 1z"/><path id="Shape" d="m7 39c-.55228475 0-1-.4477153-1-1v-2c0-.5522847.44771525-1 1-1s1 .4477153 1 1v2c0 .5522847-.44771525 1-1 1z"/><path id="Shape" d="m8 42v2h-2v-2c0-.5522847.44771525-1 1-1s1 .4477153 1 1z"/></g><path id="Shape" d="m46 54h-39.79c-2.62768969.0421177-4.86508915-1.902135-5.19-4.51-.01643773-.162788-.02311634-.3264139-.02-.49 0-2.7614237 2.23857625-5 5-5h40c-1.66 0-3 2.24-3 5s1.34 5 3 5z" fill="#f9eab0"/><path id="Shape" d="m11 49h10v8c.0000756.3602062-.193577.692619-.5069584.8702156-.3133815.1775966-.6980603.1729304-1.0070416-.0122156l-2.972-1.783c-.3164363-.1896131-.7115637-.1896131-1.028 0l-2.972 1.783c-.3089813.185146-.6936601.1898122-1.0070416.0122156-.3133814-.1775966-.507034-.5100094-.5069584-.8702156z" fill="#955ba5"/><path id="Shape" d="m25 50h-17c-.55228475 0-1-.4477153-1-1s.44771525-1 1-1h17c.5522847 0 1 .4477153 1 1s-.4477153 1-1 1z" fill="#fac176"/><path id="Shape" d="m43 18v7c0 1.6568542-1.3431458 3-3 3-1.1011688.0081672-1.9918328.8988312-2 2v2c0 1.6568542-1.3431458 3-3 3h-14c-1.6568542 0-3-1.3431458-3-3v-2c-.0032948-1.1032019-.8967981-1.9967052-2-2-1.6568542 0-3-1.3431458-3-3v-7c-.0015929-2.9178694 1.1568209-5.716688 3.2200664-7.7799336 2.0632456-2.06324555 4.8620642-3.22165927 7.7799336-3.2200664h8c2.9178694-.00159287 5.716688 1.15682085 7.7799336 3.2200664 2.0632455 2.0632456 3.2216593 4.8620642 3.2200664 7.7799336z" fill="#ecf0f1"/><path id="Shape" d="m23 30v5h-2v-5c0-.5522847.4477153-1 1-1s1 .4477153 1 1z" fill="#bdc3c7"/><path id="Shape" d="m27 30v5h-2v-5c0-.5522847.4477153-1 1-1s1 .4477153 1 1z" fill="#bdc3c7"/><path id="Shape" d="m31 30v5h-2v-5c0-.5522847.4477153-1 1-1s1 .4477153 1 1z" fill="#bdc3c7"/><path id="Shape" d="m35 30v5h-2v-5c0-.5522847.4477153-1 1-1s1 .4477153 1 1z" fill="#bdc3c7"/><ellipse id="Oval" cx="21.5" cy="18" fill="#3f5c6c" rx="3.5" ry="3"/><ellipse id="Oval" cx="34.5" cy="18" fill="#3f5c6c" rx="3.5" ry="3"/><path id="Shape" d="m28 27c2.7 0 3.123-1.827 3.111-3.011-.0060282-.5479842-.4519827-.9890332-1-.989h-4.22c-.5480173-.0000332-.9939718.4410158-1 .989-.014 1.184.409 3.011 3.109 3.011z" fill="#3f5c6c"/></g></g></svg>