<svg width="24" height="24" fill="none" xmlns="http://www.w3.org/2000/svg"><g filter="url(#filter0_d)" fill="#363636"><path d="M11.046 0A7.054 7.054 0 004 7.046a7.054 7.054 0 007.046 7.046 7.054 7.054 0 007.046-7.046A7.054 7.054 0 0011.046 0zm0 12.791a5.752 5.752 0 01-5.745-5.745 5.752 5.752 0 015.745-5.745 5.752 5.752 0 015.745 5.745 5.752 5.752 0 01-5.745 5.745z"/><path d="M19.81 14.89l-3.73-3.73a.65.65 0 10-.92.92l3.73 3.73a.648.648 0 00.92 0 .65.65 0 000-.92z"/></g><defs><filter id="filter0_d" x="0" y="0" width="24" height="24" filterUnits="userSpaceOnUse" color-interpolation-filters="sRGB"><feFlood flood-opacity="0" result="BackgroundImageFix"/><feColorMatrix in="SourceAlpha" values="0 0 0 0 0 0 0 0 0 0 0 0 0 0 0 0 0 0 127 0"/><feOffset dy="4"/><feGaussianBlur stdDeviation="2"/><feColorMatrix values="0 0 0 0 0 0 0 0 0 0 0 0 0 0 0 0 0 0 0.25 0"/><feBlend in2="BackgroundImageFix" result="effect1_dropShadow"/><feBlend in="SourceGraphic" in2="effect1_dropShadow" result="shape"/></filter></defs></svg>